 http://www.shotpix.com/images/26964966265610145521.jpg

Jessie J - Silver Lining (Crazy 'Bout You) {M4A+MP4} (1080p) x264 [VX] [P2PDL]

                           1080p Full HD MP4 Video
                                    +
                           128 Kbps/VBR M4A Audio

General
Format                         : MPEG-4
Format profile                 : Base Media / Version 2
Codec ID                       : mp42
File size                      : 38.6 MiB
Duration                       : 4mn 2s
Overall bit rate mode          : Variable

Video
ID                             : 1
Format                         : AVC
Width                          : 1 920 pixels
Height                         : 1 080 pixels
Display aspect ratio           : 16:9
Frame rate mode                : Variable
Frame rate                     : 23.976 fps
Chroma subsampling             : 4:2:0
Bit depth                      : 8 bits
Scan type                      : Progressive
Bits/(Pixel*Frame)             : 0.024
Stream size                    : 34.8 MiB (90%)
Writing library                : x264 core 128

Audio
ID                             : 2
Format                         : AAC
Format/Info                    : Advanced Audio Codec
Format profile                 : LC
Codec ID                       : 40
Duration                       : 4mn 2s
Bit rate mode                  : Variable
Bit rate                       : 128 Kbps
Maximum bit rate               : 243 Kbps
Channel(s)                     : 2 channels
Channel positions              : Front: L R
Sampling rate                  : 48.0 KHz
Stream size                    : 3.69 MiB (10%)

Subtitles                      : No

Screens:
 
http://www.shotpix.com/images/53737049443492157561.jpg 
http://www.shotpix.com/images/01275855780318711970.jpg

Thumbs: 
http://www.shotpix.com/images/76787713230919948460.jpg

------------------------------------------------------------------------

Notes:

* Recommended to use latest version VLC Media Player.
* Install shark007 codecs in case of any kind of problem in playback (For non-VLC Media Player users).
* Alternatively, install Core AVC codecs, the fastest decoder that there is coupled with Community Center Codec Pack and play on Windows Media Player Classic.

Greets to: VYTO, a2zRG, staff members at ExtraTorrent, TPB,KAT, 1337x, PublicHD, Ahashare, TorrentMafia, BTScene, P2PDL, and all others

Encoder Notes: Looking For Early Access To Anything You Can Provide DVDScr, R5, DVDRips, BluRay, Direct Audio, Early Music
Releases, Seedboxes, Links, Dedicated Servers anything u can provide, Advance / Promo CDs/DVDs. If You Got anything to
offer contact me at "prg@hush.com"